<?xml version="1.0" encoding="utf-8"?>
<!-- Generator: Adobe Illustrator 14.0.0, SVG Export Plug-In . SVG Version: 6.00 Build 43363)  -->
<!DOCTYPE svg PUBLIC "-//W3C//DTD SVG 1.1//EN" "http://www.w3.org/Graphics/SVG/1.1/DTD/svg11.dtd">
<svg version="1.1" id="Layer_1" xmlns="http://www.w3.org/2000/svg" xmlns:xlink="http://www.w3.org/1999/xlink" x="0px" y="0px"
	 width="128px" height="128px" viewBox="-40 -40 128 128" enable-background="new -40 -40 128 128" xml:space="preserve">
<g>
	<path fill="#FFFFFF" d="M37.691-0.529H24.003v-5.758c0-1.137-0.659-2.17-1.713-2.609c-1.056-0.436-2.255-0.194-3.061,0.612
		L7.562,3.386C6.986,3.965,6.662,4.749,6.662,5.566c0,0.819,0.33,1.603,0.907,2.183l11.67,11.67
		c0.806,0.811,1.993,1.046,3.048,0.612C23.339,19.595,24,18.563,24,17.421v-5.795h13.686c2.951,0,5.343-3.131,5.343-6.076
		C43.032,2.601,40.643-0.529,37.691-0.529z"/>
	<path fill="#FFFFFF" d="M30.447,28.15c-0.806-0.809-2.039-1.047-3.093-0.612c-1.056,0.437-1.766,1.469-1.766,2.61v5.787H12.005
		c-2.945,0-5.341,3.131-5.341,6.075c0,2.951,2.396,6.082,5.341,6.082h13.583v5.771c0,1.143,0.71,2.169,1.766,2.608
		c1.056,0.434,2.284,0.194,3.093-0.612l11.675-11.675c0.579-0.576,0.905-1.362,0.905-2.179s-0.326-1.601-0.905-2.179L30.447,28.15z"
		/>
	<path fill="#FFFFFF" d="M-16.902-0.529c-0.02,0-0.098,0-0.118,0c-3.979,0-7.776,1.809-10.429,4.779
		c-2.655,2.97-3.917,6.982-3.469,10.94l6.421,56.812c0.44,3.913,3.639,7.141,7.534,7.141c3.899,0,7.095-3.205,7.538-7.119
		l6.417-56.835c0.447-3.955-0.814-7.965-3.47-10.935C-9.13,1.28-12.922-0.529-16.902-0.529z"/>
	<circle fill="#FFFFFF" cx="-16.963" cy="-17.833" r="13.773"/>
	<path fill="#FFFFFF" d="M75.437,4.25c-2.654-2.97-6.449-4.779-10.427-4.779c-0.02,0-0.102,0-0.12,0
		c-3.983,0-7.774,1.809-10.428,4.779s-3.915,6.982-3.47,10.94l6.421,56.812c0.441,3.913,3.638,7.141,7.536,7.141
		c3.895,0,7.094-3.205,7.53-7.119l6.425-56.835C79.353,11.23,78.096,7.221,75.437,4.25z"/>
	<circle fill="#FFFFFF" cx="64.952" cy="-17.833" r="13.773"/>
</g>
</svg>
