<?xml version="1.0" encoding="utf-8"?>
<!-- Generator: Adobe Illustrator 14.0.0, SVG Export Plug-In . SVG Version: 6.00 Build 43363)  -->
<!DOCTYPE svg PUBLIC "-//W3C//DTD SVG 1.1//EN" "http://www.w3.org/Graphics/SVG/1.1/DTD/svg11.dtd">
<svg version="1.1" id="Layer_1" xmlns="http://www.w3.org/2000/svg" xmlns:xlink="http://www.w3.org/1999/xlink" x="0px" y="0px"
	 width="64px" height="64px" viewBox="224 224 64 64" enable-background="new 224 224 64 64" xml:space="preserve">
<rect x="224" y="224" fill="#43B51F" width="64" height="64"/>
<g>
	<path fill="#FFFFFF" d="M256,257.511c6.333,0,11.468-6.009,11.468-13.422c0-10.28-5.135-13.422-11.468-13.422
		c-6.333,0-11.467,3.142-11.467,13.422C244.533,251.502,249.667,257.511,256,257.511z"/>
	<path fill="#FFFFFF" d="M281.322,277.267l-5.785-13.032c-0.265-0.597-0.729-1.092-1.308-1.393l-8.979-4.674
		c-0.197-0.104-0.438-0.083-0.615,0.052c-2.54,1.921-5.525,2.936-8.635,2.936s-6.095-1.015-8.635-2.936
		c-0.178-0.135-0.418-0.155-0.616-0.052l-8.978,4.674c-0.579,0.301-1.043,0.796-1.308,1.393l-5.786,13.032
		c-0.399,0.898-0.317,1.927,0.219,2.751s1.442,1.315,2.425,1.315h45.357c0.983,0,1.89-0.491,2.425-1.315
		C281.64,279.193,281.722,278.165,281.322,277.267z"/>
</g>
</svg>
