<?xml version="1.0" encoding="utf-8"?>
<!-- Generator: Adobe Illustrator 14.0.0, SVG Export Plug-In . SVG Version: 6.00 Build 43363)  -->
<!DOCTYPE svg PUBLIC "-//W3C//DTD SVG 1.1//EN" "http://www.w3.org/Graphics/SVG/1.1/DTD/svg11.dtd">
<svg version="1.1" id="Capa_1" xmlns="http://www.w3.org/2000/svg" xmlns:xlink="http://www.w3.org/1999/xlink" x="0px" y="0px"
	 width="64px" height="64px" viewBox="-21.438 -21.5 64 64" enable-background="new -21.438 -21.5 64 64" xml:space="preserve">
<rect x="-21.438" y="-21.5" fill="#00AEEF" width="64" height="64"/>
<g>
	<path fill="#FFFFFF" d="M34.012-14.851c-0.863,0-1.594,0.569-1.901,1.376c-3.555,1.852-11.822,6.042-17.908,8.364
		C2.8-0.753-7.147,0.389-7.147,0.389v16.412c0,0,3.404,0.395,8.494,1.583l0.077,15.292c0.006,1.199,1,2.181,2.202,2.175l3.556-0.017
		c1.203-0.01,2.177-0.994,2.176-2.203L9.286,20.584c1.593,0.512,3.235,1.076,4.917,1.719c6.086,2.325,14.354,6.514,17.917,8.36
		c0.304,0.807,1.034,1.378,1.893,1.378c1.129,0,2.05-0.981,2.05-2.188V-12.66C36.061-13.865,35.136-14.851,34.012-14.851z"/>
	<rect x="-14.938" y="0.575" fill="#FFFFFF" width="5.971" height="16.043"/>
</g>
</svg>
